<svg width="146" height="38" viewBox="0 0 146 38" fill="none" xmlns="http://www.w3.org/2000/svg">
<g filter="url(#filter0_d_8_254)">
<path d="M37.125 18.5781L37.9219 19.25C37.4427 20.4479 36.8073 21.4323 36.0156 22.2031C35.224 22.974 34.4323 23.3594 33.6406 23.3594C32.849 23.3594 32.2812 23.1042 31.9375 22.5938C31.6042 22.0833 31.4375 21.4375 31.4375 20.6562C31.4375 19.875 31.6771 18.6198 32.1562 16.8906C32.6458 15.1615 33.1771 13.5 33.75 11.9062C35.3021 7.65625 36.0781 4.92708 36.0781 3.71875C36.0781 3.02083 35.8542 2.67188 35.4062 2.67188C33.625 2.67188 31.4062 5.54167 28.75 11.2812C27.6771 13.5938 26.8333 15.5365 26.2188 17.1094C24.9479 20.401 24.1875 22.3646 23.9375 23H20.4531L21.8906 19.25C23.599 14.9062 24.8542 10.8698 25.6562 7.14062C25.9688 5.72396 26.125 4.58854 26.125 3.73438C26.125 2.43229 25.7812 1.78125 25.0938 1.78125C24.4062 1.78125 23.6302 2.30729 22.7656 3.35938C21.901 4.40104 21.0729 5.70833 20.2812 7.28125C19.4896 8.85417 18.6979 10.5573 17.9062 12.3906C17.1146 14.224 16.4271 15.9271 15.8438 17.5C14.5 21.1667 13.8073 23 13.7656 23H10.7031L12.4531 18.1094C14.0156 14.0781 14.9688 10.9062 15.3125 8.59375C15.4792 7.52083 15.5625 6.42708 15.5625 5.3125C15.5625 4.19792 15.276 3.26562 14.7031 2.51562C14.1302 1.75521 13.3438 1.375 12.3438 1.375C11.3438 1.375 10.4792 1.58854 9.75 2.01562C9.03125 2.43229 8.4375 2.96354 7.96875 3.60938C7.5 4.25521 7.10417 4.97917 6.78125 5.78125C6.16667 7.27083 5.85938 8.72396 5.85938 10.1406C5.85938 13.1719 6.55208 15.8385 7.9375 18.1406L7.26562 18.6406C6.51562 17.4427 5.94271 16.099 5.54688 14.6094C5.16146 13.1094 4.96875 11.8021 4.96875 10.6875C4.96875 9.57292 5.05208 8.58854 5.21875 7.73438C5.38542 6.86979 5.66146 6 6.04688 5.125C6.43229 4.25 6.90625 3.47396 7.46875 2.79688C8.04167 2.10938 8.77083 1.55208 9.65625 1.125C10.5521 0.6875 11.4896 0.46875 12.4688 0.46875C13.4479 0.46875 14.2708 0.65625 14.9375 1.03125C15.6146 1.40625 16.1458 1.91146 16.5312 2.54688C17.2917 3.79688 17.6719 5.3125 17.6719 7.09375C17.6719 8.875 17.1146 11.4688 16 14.875C16.3854 13.8542 16.6667 13.1406 16.8438 12.7344C17.0312 12.3281 17.25 11.8281 17.5 11.2344C17.7604 10.6406 17.9635 10.1771 18.1094 9.84375C18.2552 9.5 18.4792 9.00521 18.7812 8.35938C19.0833 7.70312 19.3438 7.16667 19.5625 6.75C19.7917 6.32292 20.0781 5.80729 20.4219 5.20312C20.776 4.58854 21.099 4.08333 21.3906 3.6875C21.6823 3.29167 22.0156 2.875 22.3906 2.4375C22.776 1.98958 23.1458 1.63542 23.5 1.375C24.3021 0.770833 25.0781 0.46875 25.8281 0.46875C27.599 0.46875 28.4844 1.65625 28.4844 4.03125C28.4844 5.53125 28.1875 7.39062 27.5938 9.60938C27.3958 10.349 27.1198 11.3073 26.7656 12.4844C26.4219 13.651 26.2292 14.3177 26.1875 14.4844C26.6458 13.6406 27.2448 12.3229 27.9844 10.5312C28.724 8.73958 29.375 7.32812 29.9375 6.29688C30.5 5.26562 31.0625 4.38542 31.625 3.65625C32.1875 2.92708 32.8594 2.31771 33.6406 1.82812C34.4323 1.33854 35.2135 1.09375 35.9844 1.09375C36.7656 1.09375 37.3802 1.34375 37.8281 1.84375C38.2865 2.34375 38.5156 3.01042 38.5156 3.84375C38.5156 4.67708 38.3698 5.69271 38.0781 6.89062C37.7865 8.07812 37.4271 9.26042 37 10.4375C36.5729 11.6146 36.1458 12.7865 35.7188 13.9531C34.6667 16.776 34.1042 18.9688 34.0312 20.5312C34.0312 21.1979 34.2031 21.5312 34.5469 21.5312C34.901 21.5312 35.3177 21.2292 35.7969 20.625C36.276 20.0208 36.7188 19.3385 37.125 18.5781ZM39.5156 17.5938L38.5 16.9844C39.0208 16.0781 39.6667 15.2812 40.4375 14.5938C41.2188 13.9062 41.9167 13.5625 42.5312 13.5625C43.5312 13.5625 44.0312 14.0104 44.0312 14.9062C44.0312 15.2812 43.7708 16.1927 43.25 17.6406C42.7396 19.0885 42.4844 20.0052 42.4844 20.3906C42.4844 20.776 42.5104 21.026 42.5625 21.1406C42.6146 21.2448 42.7292 21.2969 42.9062 21.2969C43.8542 21.2969 44.8281 20.9427 45.8281 20.2344C46.8385 19.5156 47.4948 18.724 47.7969 17.8594L48.8906 14.6719C49.0052 14.349 49.1823 14.0938 49.4219 13.9062C49.6615 13.7188 49.8906 13.625 50.1094 13.625C50.3385 13.625 50.5208 13.6979 50.6562 13.8438C50.8021 13.9896 50.875 14.1823 50.875 14.4219C50.875 14.6615 50.8281 14.9115 50.7344 15.1719L49.5469 18.6406C48.8906 20.6823 47.875 22.6927 46.5 24.6719C47.6979 24.7969 48.7656 25.0104 49.7031 25.3125L49.5781 26.1875C48.1406 25.8958 46.8698 25.724 45.7656 25.6719C44.7552 26.974 43.7188 28.0104 42.6562 28.7812C41.6042 29.5625 40.6823 29.9531 39.8906 29.9531C39.1094 29.9531 38.526 29.7917 38.1406 29.4688C37.7448 29.1562 37.5469 28.724 37.5469 28.1719C37.5469 27.6198 37.7552 27.1146 38.1719 26.6562C38.5885 26.2083 39.1458 25.8438 39.8438 25.5625C41.2604 24.9792 42.8854 24.6458 44.7188 24.5625C44.8646 24.3958 45.2135 23.8125 45.7656 22.8125C46.3177 21.8021 46.6146 21.1667 46.6562 20.9062C44.8125 22.4688 43.1875 23.25 41.7812 23.25C41.2083 23.25 40.7917 23.0573 40.5312 22.6719C40.2708 22.276 40.1406 21.7917 40.1406 21.2188C40.1406 20.6458 40.3542 19.6667 40.7812 18.2812C41.2188 16.8854 41.4375 16.0938 41.4375 15.9062C41.4375 15.7083 41.3906 15.6094 41.2969 15.6094C41.2135 15.6094 41.1198 15.6354 41.0156 15.6875C40.9115 15.7292 40.8073 15.8021 40.7031 15.9062C40.6094 16 40.5208 16.0938 40.4375 16.1875C40.3542 16.2708 40.2604 16.3906 40.1562 16.5469C40.0625 16.7031 39.9896 16.8229 39.9375 16.9062C39.7188 17.25 39.5781 17.4792 39.5156 17.5938ZM44.0312 25.6719C43.1875 25.724 42.3281 25.875 41.4531 26.125C39.7656 26.6042 38.9219 27.1667 38.9219 27.8125C38.9219 28.1979 39.1615 28.3906 39.6406 28.3906C40.1198 28.3906 40.901 28.0417 41.9844 27.3438C43.0677 26.6562 43.75 26.099 44.0312 25.6719ZM78.6562 19.6719L79.6406 20.1562C79.3281 20.9688 78.9375 21.625 78.4688 22.125C77.6354 23.0104 76.6927 23.4531 75.6406 23.4531C74.6719 23.4531 73.8229 22.8542 73.0938 21.6562C72.5312 20.7292 72.0625 19.7292 71.6875 18.6562C71.3125 17.5729 71.0208 16.7708 70.8125 16.25C70.3438 15.0521 69.8854 14.4531 69.4375 14.4531C68.4375 17.4948 66.9531 19.7708 64.9844 21.2812C63.026 22.7812 60.6615 23.5312 57.8906 23.5312C56.224 23.5312 54.7396 23.1667 53.4375 22.4375C52.7812 22.0833 52.2552 21.6042 51.8594 21C51.4635 20.3854 51.2656 19.6615 51.2656 18.8281C51.2656 17.9948 51.4792 17.2135 51.9062 16.4844C52.3333 15.7552 52.8958 15.1667 53.5938 14.7188C55.0312 13.7708 56.651 13.2969 58.4531 13.2969C58.5156 10.5365 59.4479 8.04167 61.25 5.8125C63.0729 3.54167 65.2448 1.97917 67.7656 1.125C69.0781 0.6875 70.2812 0.46875 71.375 0.46875C72.4688 0.46875 73.4115 0.578125 74.2031 0.796875C74.9948 1.00521 75.7292 1.31771 76.4062 1.73438C77.0833 2.15104 77.625 2.71875 78.0312 3.4375C78.4479 4.15625 78.6562 4.97917 78.6562 5.90625C78.6562 6.82292 78.4792 7.70833 78.125 8.5625C77.7812 9.40625 77.2969 10.1667 76.6719 10.8438C75.5052 12.1146 74.0208 13.2031 72.2188 14.1094C72.9271 14.6927 73.6979 16.1042 74.5312 18.3438C74.8333 19.1354 75.1875 19.8438 75.5938 20.4688C76 21.0938 76.4115 21.4062 76.8281 21.4062C77.2344 21.4062 77.5729 21.2292 77.8438 20.875C78.1875 20.4271 78.4583 20.026 78.6562 19.6719ZM60.2188 18.1094L59.2656 18.3281C59.0156 17.8385 58.7812 16.9583 58.5625 15.6875L58.4531 15.0625C56.724 15.0625 55.1875 15.4688 53.8438 16.2812C53.3958 16.5625 53.0208 16.9271 52.7188 17.375C52.4271 17.8229 52.2812 18.3385 52.2812 18.9219C52.2812 19.5052 52.4427 20.0417 52.7656 20.5312C53.0885 21.0104 53.5208 21.3854 54.0625 21.6562C55.125 22.2083 56.3073 22.4844 57.6094 22.4844C59.8385 22.4844 61.6302 21.8906 62.9844 20.7031C64.3385 19.5156 65.3906 17.8177 66.1406 15.6094C66.2969 15.151 66.5 14.526 66.75 13.7344C67.0104 12.9323 67.2188 12.2969 67.375 11.8281C67.5312 11.349 67.7448 10.7552 68.0156 10.0469C68.2865 9.32812 68.5365 8.72917 68.7656 8.25C68.9948 7.77083 69.2865 7.22917 69.6406 6.625C70.0052 6.02083 70.3802 5.48958 70.7656 5.03125C71.6927 3.94792 72.7135 3.05729 73.8281 2.35938C73.5781 2.21354 73.1198 2.08333 72.4531 1.96875C71.7865 1.84375 71.0885 1.78125 70.3594 1.78125C69.1198 1.78125 67.8385 2.11458 66.5156 2.78125C65.2031 3.44792 64.026 4.3125 62.9844 5.375C61.9427 6.4375 61.0781 7.68229 60.3906 9.10938C59.7135 10.5365 59.3698 11.9583 59.3594 13.375C61.651 13.6979 63.4531 14.6979 64.7656 16.375L64.25 16.9219C64.1875 16.8906 64.0156 16.7812 63.7344 16.5938C63.4531 16.3958 63.1771 16.224 62.9062 16.0781C62.6458 15.9323 62.3281 15.7708 61.9531 15.5938C61.1615 15.2188 60.2969 15.0312 59.3594 15.0312C59.4115 15.7083 59.5625 16.3854 59.8125 17.0625C60.0729 17.7292 60.2083 18.0781 60.2188 18.1094ZM69.5 14.1406C71.3646 13.5573 72.9062 12.5833 74.125 11.2188C75.3542 9.85417 75.9688 8.24479 75.9688 6.39062C75.9688 5.75521 75.8438 5.11458 75.5938 4.46875C75.3438 3.8125 75 3.30208 74.5625 2.9375C73.4062 3.76042 72.5469 4.69792 71.9844 5.75C71.6615 6.35417 71.401 6.86458 71.2031 7.28125C71.0052 7.6875 70.8021 8.30208 70.5938 9.125C70.3333 10.1354 70.099 11.1615 69.8906 12.2031C69.6823 13.2344 69.5521 13.8802 69.5 14.1406ZM82.7812 19.9219C82.8438 21.1198 83.651 21.7188 85.2031 21.7188C85.776 21.7188 86.3698 21.5573 86.9844 21.2344C87.6094 20.901 88.1146 20.5104 88.5 20.0625L89.1719 20.5C88.3073 21.9479 86.9271 22.8333 85.0312 23.1562C84.6146 23.2188 84.2135 23.25 83.8281 23.25C82.7031 23.25 81.7656 22.8802 81.0156 22.1406C80.2656 21.3906 79.8906 20.4792 79.8906 19.4062C79.8906 18.3333 80.2188 17.3438 80.875 16.4375C81.5312 15.5208 82.349 14.8125 83.3281 14.3125C84.3177 13.8125 85.2917 13.5625 86.25 13.5625C87.2083 13.5625 88.0365 13.7812 88.7344 14.2188C89.4427 14.6562 89.8021 15.2448 89.8125 15.9844C89.8333 16.724 89.6198 17.3646 89.1719 17.9062C88.724 18.4375 88.1562 18.8438 87.4688 19.125C86.1042 19.6771 84.7656 19.9531 83.4531 19.9531L82.7812 19.9219ZM82.6875 19.0625C83.8438 19.0208 84.7708 18.8385 85.4688 18.5156C86.1771 18.1823 86.6667 17.8073 86.9375 17.3906C87.2188 16.9635 87.3594 16.5208 87.3594 16.0625C87.3594 15.5938 87.2396 15.25 87 15.0312C86.7604 14.8021 86.5052 14.6875 86.2344 14.6875C85.5677 14.6875 84.9531 14.9219 84.3906 15.3906C83.8385 15.849 83.4167 16.4115 83.125 17.0781C82.8333 17.7344 82.6875 18.3958 82.6875 19.0625ZM99.0625 19.7656L99.7031 20.2188C99.2448 21.1458 98.5365 21.8854 97.5781 22.4375C96.6302 22.9792 95.6354 23.25 94.5938 23.25C93.5521 23.25 92.6719 22.9323 91.9531 22.2969C91.2448 21.6615 90.8906 20.7656 90.8906 19.6094C90.8906 18.4427 91.2448 17.3906 91.9531 16.4531C92.6719 15.5156 93.5521 14.8021 94.5938 14.3125C95.6354 13.8125 96.6875 13.5625 97.75 13.5625C99.0521 13.5625 99.9271 13.875 100.375 14.5C100.562 14.75 100.656 15.0677 100.656 15.4531C100.656 15.8281 100.526 16.1458 100.266 16.4062C100.005 16.6667 99.6927 16.7969 99.3281 16.7969C98.9635 16.7969 98.6562 16.6823 98.4062 16.4531C98.1562 16.2135 98.0312 15.9115 98.0312 15.5469C98.0312 15.1823 98.2552 14.849 98.7031 14.5469C98.3073 14.4219 97.9427 14.3594 97.6094 14.3594C96.8906 14.3594 96.2292 14.625 95.625 15.1562C95.0208 15.6875 94.5625 16.3333 94.25 17.0938C93.9375 17.8438 93.7812 18.5833 93.7812 19.3125C93.7812 20.0417 93.9531 20.6302 94.2969 21.0781C94.651 21.5156 95.1562 21.7344 95.8125 21.7344C96.4688 21.7344 97.099 21.5521 97.7031 21.1875C98.3073 20.8125 98.7604 20.3385 99.0625 19.7656ZM104.219 23.25C103.781 23.25 103.438 23.1146 103.188 22.8438C102.938 22.5729 102.812 22.2031 102.812 21.7344C102.812 21.2552 102.932 20.6094 103.172 19.7969C103.422 18.974 103.667 18.2292 103.906 17.5625C104.156 16.8958 104.281 16.4531 104.281 16.2344C104.281 16.0052 104.208 15.8906 104.062 15.8906C103.698 15.8906 103.109 16.6094 102.297 18.0469L101.25 17.4375C102.781 14.8542 104.188 13.5625 105.469 13.5625C106.344 13.5625 106.781 14.1146 106.781 15.2188C106.781 15.5417 106.677 16.0573 106.469 16.7656L105.344 19.9844C105.229 20.2865 105.172 20.5625 105.172 20.8125C105.172 21.0521 105.266 21.1719 105.453 21.1719C105.807 21.1719 106.458 20.5156 107.406 19.2031L108.062 19.8125C107.5 20.8542 106.828 21.6875 106.047 22.3125C105.276 22.9375 104.667 23.25 104.219 23.25ZM108.672 8.95312C108.672 9.36979 108.531 9.75 108.25 10.0938C107.969 10.4375 107.589 10.6094 107.109 10.6094C106.63 10.6094 106.271 10.4688 106.031 10.1875C105.792 9.89583 105.672 9.53125 105.672 9.09375C105.672 8.65625 105.818 8.27083 106.109 7.9375C106.411 7.59375 106.797 7.42188 107.266 7.42188C107.734 7.42188 108.083 7.57292 108.312 7.875C108.552 8.16667 108.672 8.52604 108.672 8.95312ZM119.766 20C119.297 20.9375 118.63 21.7135 117.766 22.3281C116.911 22.9427 115.927 23.25 114.812 23.25C113.698 23.25 112.807 22.8229 112.141 21.9688C111.651 23.8958 111.234 25.2708 110.891 26.0938C109.807 28.6458 108.323 29.9271 106.438 29.9375C105.979 29.9375 105.594 29.7812 105.281 29.4688C104.969 29.1562 104.812 28.7917 104.812 28.375C104.812 27.9688 104.917 27.6458 105.125 27.4062C105.333 27.1771 105.609 27.0625 105.953 27.0625C106.297 27.0625 106.583 27.1406 106.812 27.2969C107.042 27.4635 107.156 27.7135 107.156 28.0469C107.156 28.3906 106.974 28.7552 106.609 29.1406L106.703 29.2656C107.349 29.2656 107.938 28.3229 108.469 26.4375C108.677 25.6771 108.828 25.0833 108.922 24.6562C109.016 24.2292 109.073 23.974 109.094 23.8906L110.734 17.4375C110.224 17.7708 109.573 18.4167 108.781 19.375L108.172 18.6719C108.63 18.0365 109.172 17.4167 109.797 16.8125C110.422 16.2083 110.818 15.8229 110.984 15.6562C111.797 13.25 112.583 11.4479 113.344 10.25C114.135 9.04167 115.01 8.08854 115.969 7.39062L116.391 7.76562C115.734 8.54688 115.177 9.54167 114.719 10.75C114.26 11.9583 113.964 13.1198 113.828 14.2344C114.943 13.7865 116 13.5625 117 13.5625C118.01 13.5625 118.844 13.8802 119.5 14.5156C120.156 15.151 120.484 15.9896 120.484 17.0312C120.484 18.0729 120.245 19.0625 119.766 20ZM113.672 15.6406L112.484 20.8906C112.672 21.2969 112.984 21.6042 113.422 21.8125C113.859 22.0208 114.365 22.125 114.938 22.125C115.51 22.125 116.036 21.8802 116.516 21.3906C117.411 20.474 117.859 19.2812 117.859 17.8125C117.859 16.5 117.505 15.6146 116.797 15.1562C116.516 14.9688 116.141 14.875 115.672 14.875C115.214 14.875 114.547 15.1302 113.672 15.6406ZM124.625 19.9219C124.688 21.1198 125.495 21.7188 127.047 21.7188C127.62 21.7188 128.214 21.5573 128.828 21.2344C129.453 20.901 129.958 20.5104 130.344 20.0625L131.016 20.5C130.151 21.9479 128.771 22.8333 126.875 23.1562C126.458 23.2188 126.057 23.25 125.672 23.25C124.547 23.25 123.609 22.8802 122.859 22.1406C122.109 21.3906 121.734 20.4792 121.734 19.4062C121.734 18.3333 122.062 17.3438 122.719 16.4375C123.375 15.5208 124.193 14.8125 125.172 14.3125C126.161 13.8125 127.135 13.5625 128.094 13.5625C129.052 13.5625 129.88 13.7812 130.578 14.2188C131.286 14.6562 131.646 15.2448 131.656 15.9844C131.677 16.724 131.464 17.3646 131.016 17.9062C130.568 18.4375 130 18.8438 129.312 19.125C127.948 19.6771 126.609 19.9531 125.297 19.9531L124.625 19.9219ZM124.531 19.0625C125.688 19.0208 126.615 18.8385 127.312 18.5156C128.021 18.1823 128.51 17.8073 128.781 17.3906C129.062 16.9635 129.203 16.5208 129.203 16.0625C129.203 15.5938 129.083 15.25 128.844 15.0312C128.604 14.8021 128.349 14.6875 128.078 14.6875C127.411 14.6875 126.797 14.9219 126.234 15.3906C125.682 15.849 125.26 16.4115 124.969 17.0781C124.677 17.7344 124.531 18.3958 124.531 19.0625ZM134.234 22.8906C133.557 22.651 133.073 22.3698 132.781 22.0469C132.49 21.7135 132.344 21.349 132.344 20.9531C132.344 20.5573 132.453 20.2292 132.672 19.9688C132.891 19.7083 133.177 19.5781 133.531 19.5781C133.896 19.5781 134.214 19.6875 134.484 19.9062C134.766 20.1146 134.906 20.4167 134.906 20.8125C134.906 21.1979 134.667 21.5208 134.188 21.7812C134.583 22.125 135.188 22.2969 136 22.2969C137.76 22.2969 138.641 21.7969 138.641 20.7969C138.641 20.1719 138.083 19.6719 136.969 19.2969C136.51 19.1406 136.047 18.974 135.578 18.7969C135.12 18.6198 134.719 18.3594 134.375 18.0156C134.031 17.6719 133.844 17.2552 133.812 16.7656C133.812 16.0573 134.047 15.4583 134.516 14.9688C135.401 14.0312 136.724 13.5625 138.484 13.5625C139.349 13.5625 140.115 13.7292 140.781 14.0625C141.448 14.3854 141.781 14.8073 141.781 15.3281C141.781 15.849 141.646 16.224 141.375 16.4531C141.115 16.6823 140.807 16.7969 140.453 16.7969C140.099 16.7969 139.797 16.7031 139.547 16.5156C139.307 16.3177 139.188 16.0469 139.188 15.7031C139.188 15.3594 139.391 15.0625 139.797 14.8125C139.547 14.6354 139.115 14.5469 138.5 14.5469C137.885 14.5469 137.333 14.6406 136.844 14.8281C136.354 15.0052 136.109 15.25 136.109 15.5625C136.109 15.875 136.286 16.1354 136.641 16.3438C137.005 16.5521 137.443 16.7448 137.953 16.9219C138.464 17.099 138.974 17.3021 139.484 17.5312C139.995 17.7604 140.427 18.0885 140.781 18.5156C141.146 18.9427 141.328 19.4688 141.328 20.0938C141.328 20.7188 141.073 21.2865 140.562 21.7969C139.594 22.7656 138.271 23.25 136.594 23.25C135.708 23.25 134.922 23.1302 134.234 22.8906Z" fill="#ECECEC"/>
</g>
<defs>
<filter id="filter0_d_8_254" x="0.96875" y="0.46875" width="144.812" height="37.4844" filterUnits="userSpaceOnUse" color-interpolation-filters="sRGB">
<feFlood flood-opacity="0" result="BackgroundImageFix"/>
<feColorMatrix in="SourceAlpha" type="matrix" values="0 0 0 0 0 0 0 0 0 0 0 0 0 0 0 0 0 0 127 0" result="hardAlpha"/>
<feOffset dy="4"/>
<feGaussianBlur stdDeviation="2"/>
<feComposite in2="hardAlpha" operator="out"/>
<feColorMatrix type="matrix" values="0 0 0 0 0 0 0 0 0 0 0 0 0 0 0 0 0 0 0.25 0"/>
<feBlend mode="normal" in2="BackgroundImageFix" result="effect1_dropShadow_8_254"/>
<feBlend mode="normal" in="SourceGraphic" in2="effect1_dropShadow_8_254" result="shape"/>
</filter>
</defs>
</svg>
