<svg width="33" height="33" viewBox="0 0 33 33" fill="none" xmlns="http://www.w3.org/2000/svg">
<path d="M16.5 16.5C14.3458 16.5 12.5017 15.733 10.9677 14.1989C9.43366 12.6649 8.66665 10.8208 8.66665 8.66665C8.66665 6.51248 9.43366 4.66838 10.9677 3.13435C12.5017 1.60033 14.3458 0.833313 16.5 0.833313C18.6541 0.833313 20.4982 1.60033 22.0323 3.13435C23.5663 4.66838 24.3333 6.51248 24.3333 8.66665C24.3333 10.8208 23.5663 12.6649 22.0323 14.1989C20.4982 15.733 18.6541 16.5 16.5 16.5ZM0.833313 32.1666V26.6833C0.833313 25.5736 1.1189 24.5536 1.69008 23.6234C2.26126 22.6932 3.02012 21.9833 3.96665 21.4937C5.99026 20.4819 8.04651 19.7231 10.1354 19.2172C12.2243 18.7113 14.3458 18.4583 16.5 18.4583C18.6541 18.4583 20.7757 18.7113 22.8646 19.2172C24.9535 19.7231 27.0097 20.4819 29.0333 21.4937C29.9798 21.9833 30.7387 22.6932 31.3099 23.6234C31.8811 24.5536 32.1666 25.5736 32.1666 26.6833V32.1666H0.833313ZM4.74998 28.25H28.25V26.6833C28.25 26.3243 28.1602 25.9979 27.9807 25.7041C27.8012 25.4104 27.5646 25.1819 27.2708 25.0187C25.5083 24.1375 23.7295 23.4765 21.9344 23.0359C20.1392 22.5953 18.3278 22.375 16.5 22.375C14.6722 22.375 12.8607 22.5953 11.0656 23.0359C9.27046 23.4765 7.49165 24.1375 5.72915 25.0187C5.4354 25.1819 5.19876 25.4104 5.01925 25.7041C4.83974 25.9979 4.74998 26.3243 4.74998 26.6833V28.25ZM16.5 12.5833C17.5771 12.5833 18.4991 12.1998 19.2661 11.4328C20.0331 10.6658 20.4166 9.74373 20.4166 8.66665C20.4166 7.58956 20.0331 6.66751 19.2661 5.9005C18.4991 5.13349 17.5771 4.74998 16.5 4.74998C15.4229 4.74998 14.5008 5.13349 13.7338 5.9005C12.9668 6.66751 12.5833 7.58956 12.5833 8.66665C12.5833 9.74373 12.9668 10.6658 13.7338 11.4328C14.5008 12.1998 15.4229 12.5833 16.5 12.5833Z" fill="white"/>
</svg>
